# xmcd CD database file
#
# Track frame offsets:
#	150
#	23175
#	48575
#	73025
#	90675
#	112375
#	139025
#	156975
#	179750
#
# Disc length: 2788 seconds
#
# Revision: 0
# Processed by: cddbd v1.4PL0 Copyright (c) Steve Scherf et al.
# Submitted via: CDex 1.50
#
DISCID=870ae209
DTITLE=Wilton Felder - Nocturnal Moods
DYEAR=1992
DGENRE=Jazz
TTITLE0=Feel So Much Better
TTITLE1=Night Moves
TTITLE2=Southern Pearl
TTITLE3=If I Knew Then, What I Know Now
TTITLE4=Sugar Loaf
TTITLE5=Love Steps
TTITLE6=Out Of Sight, Not Out Of Mind
TTITLE7=Since I Fell For You
TTITLE8=Music Of The Night
EXTD=YEAR: 1992
EXTT0=
EXTT1=
EXTT2=
EXTT3=
EXTT4=
EXTT5=
EXTT6=
EXTT7=
EXTT8=
PLAYORDER=
